<svg width="497" height="206" viewBox="0 0 497 206" fill="none" xmlns="http://www.w3.org/2000/svg">
<mask id="path-1-inside-1_810_476" fill="white">
<path fill-rule="evenodd" clip-rule="evenodd" d="M37.2156 0C20.6471 0 7.21563 13.4315 7.21563 30V161C7.21563 162.367 7.3071 163.713 7.48425 165.032L0 205.519L39.2043 191H467C483.569 191 497 177.569 497 161V30C497 13.4315 483.569 0 467 0H37.2156Z"/>
</mask>
<path fill-rule="evenodd" clip-rule="evenodd" d="M37.2156 0C20.6471 0 7.21563 13.4315 7.21563 30V161C7.21563 162.367 7.3071 163.713 7.48425 165.032L0 205.519L39.2043 191H467C483.569 191 497 177.569 497 161V30C497 13.4315 483.569 0 467 0H37.2156Z" fill="#FAFBFC"/>
<path d="M7.48425 165.032L17.3177 166.85L17.6076 165.281L17.3952 163.701L7.48425 165.032ZM0 205.519L-9.8334 203.701L-13.0329 221.009L3.47289 214.896L0 205.519ZM39.2043 191V181H37.4121L35.7314 181.622L39.2043 191ZM17.2156 30C17.2156 18.9543 26.1699 10 37.2156 10V-10C15.1242 -10 -2.78437 7.90861 -2.78437 30H17.2156ZM17.2156 161V30H-2.78437V161H17.2156ZM17.3952 163.701C17.2772 162.822 17.2156 161.921 17.2156 161H-2.78437C-2.78437 162.814 -2.663 164.605 -2.42672 166.363L17.3952 163.701ZM9.8334 207.337L17.3177 166.85L-2.34914 163.214L-9.8334 203.701L9.8334 207.337ZM35.7314 181.622L-3.47289 196.141L3.47289 214.896L42.6772 200.378L35.7314 181.622ZM467 181H39.2043V201H467V181ZM487 161C487 172.046 478.046 181 467 181V201C489.091 201 507 183.091 507 161H487ZM487 30V161H507V30H487ZM467 10C478.046 10 487 18.9543 487 30H507C507 7.9086 489.091 -10 467 -10V10ZM37.2156 10H467V-10H37.2156V10Z" fill="#AAE4F5" mask="url(#path-1-inside-1_810_476)"/>
</svg>
