<svg width="48" height="68" viewBox="0 0 48 68" fill="none" xmlns="http://www.w3.org/2000/svg">
<path d="M25.6672 0.666992V11.5055C25.6672 12.8862 26.7865 14.0055 28.1672 14.0055C29.5478 14.0055 30.6672 12.8862 30.6672 11.5055V0.666992H34.0005V14.8374C34.0005 16.2181 35.1198 17.3374 36.5005 17.3374C37.8812 17.3374 39.0005 16.2181 39.0005 14.8374V0.666992H44.8345C46.2155 0.666992 47.3345 1.78629 47.3345 3.16699V30.667H0.667969V3.16699C0.667969 1.78629 1.78727 0.666992 3.16797 0.666992H25.6672ZM0.667969 35.667V41.5073C0.667969 45.6493 4.02584 49.0073 8.16797 49.0073H17.3335V60.667C17.3335 64.349 20.3182 67.3337 24.0002 67.3337C27.6822 67.3337 30.6668 64.349 30.6668 60.667V49.0073H39.8345C43.9768 49.0073 47.3345 45.6493 47.3345 41.5073V35.667H0.667969Z" fill="#212121"/>
</svg>
