<svg width="69" height="70" viewBox="0 0 69 70" fill="none" xmlns="http://www.w3.org/2000/svg">
<path d="M68.3333 35.0002C68.3333 53.8697 53.0362 69.1668 34.1667 69.1668C15.2969 69.1668 0 53.8697 0 35.0002C0 16.1304 15.2969 0.833496 34.1667 0.833496C53.0362 0.833496 68.3333 16.1304 68.3333 35.0002ZM41.1035 19.5215C40.1028 18.5208 38.4805 18.5208 37.4798 19.5215L23.813 33.1883C22.8123 34.189 22.8123 35.8113 23.813 36.812L37.4798 50.4787C38.4805 51.4794 40.1028 51.4794 41.1035 50.4787C42.1043 49.4779 42.1043 47.8557 41.1035 46.855L29.2491 35.0002L41.1035 23.1455C42.1043 22.1447 42.1043 20.5222 41.1035 19.5215Z" fill="#212121"/>
</svg>
